HIERARCHY
ROOT Hips
{
	OFFSET 0.000000 8.830580 0.000000
	CHANNELS 6 Xposition Yposition Zposition Zrotation Yrotation Xrotation 
	JOINT Spine
	{
		OFFSET 0.000000 0.010000 0.000000
		CHANNELS 3 Zrotation Yrotation Xrotation
		JOINT Spine1
		{
			OFFSET 0.000000 2.459130 0.000000
			CHANNELS 3 Zrotation Yrotation Xrotation
			JOINT Neck
			{
				OFFSET 0.000000 2.484630 0.000000
				CHANNELS 3 Zrotation Yrotation Xrotation
				JOINT Head_virtual
				{
					OFFSET 0.000000 0.000000 0.000000
					CHANNELS 3 Zrotation Yrotation Xrotation
					JOINT Head
					{
						OFFSET 0.000000 0.927525 0.000000
						CHANNELS 3 Zrotation Yrotation Xrotation
						End Site
						{
							OFFSET 0.000000 0.000000 0.000000
						}
					}
				}
				JOINT LeftUpArm_virtual
				{
					OFFSET 0.000000 0.000000 0.000000
					CHANNELS 3 Zrotation Yrotation Xrotation
					JOINT LeftUpArm
					{
						OFFSET 1.248820 0.000000 0.000000
						CHANNELS 3 Zrotation Yrotation Xrotation
						JOINT LeftForeArm
						{
							OFFSET 2.597580 0.000000 0.000000
							CHANNELS 3 Zrotation Yrotation Xrotation
							JOINT LeftHand
							{
								OFFSET 2.455420 0.000000 0.000000
								CHANNELS 3 Zrotation Yrotation Xrotation
								End Site
								{
									OFFSET 0.000000 0.000000 0.000000
								}
							}
						}
					}
				}
				JOINT RightUpArm_virtual
				{
					OFFSET -0.000000 -0.000000 -0.000000
					CHANNELS 3 Zrotation Yrotation Xrotation
					JOINT RightUpArm
					{
						OFFSET -1.248820 -0.000000 -0.000000
						CHANNELS 3 Zrotation Yrotation Xrotation
						JOINT RightForeArm
						{
							OFFSET -2.597580 -0.000000 -0.000000
							CHANNELS 3 Zrotation Yrotation Xrotation
							JOINT RightHand
							{
								OFFSET -2.455420 -0.000000 -0.000000
								CHANNELS 3 Zrotation Yrotation Xrotation
								End Site
								{
									OFFSET 0.000000 0.000000 0.000000
								}
							}
						}
					}
				}
			}
		}
	}
	JOINT LeftUpLeg
	{
		OFFSET 1.271939 0.000000 0.000000
		CHANNELS 3 Zrotation Yrotation Xrotation
		JOINT LeftLowLeg
		{
			OFFSET 0.000000 -4.342910 0.000000
			CHANNELS 3 Zrotation Yrotation Xrotation
			JOINT LeftFoot
			{
				OFFSET 0.000000 -4.487670 0.000000
				CHANNELS 3 Zrotation Yrotation Xrotation
				JOINT LeftToeBase
				{
					OFFSET 0.000000 0.000000 1.515070
					CHANNELS 3 Zrotation Yrotation Xrotation
					End Site
					{
						OFFSET 0.000000 0.000000 0.000000
					}
				}
			}
		}
	}
	JOINT RightUpLeg
	{
		OFFSET -1.271939 0.000000 0.000000
		CHANNELS 3 Zrotation Yrotation Xrotation
		JOINT RightLowLeg
		{
			OFFSET 0.000000 -4.342910 0.000000
			CHANNELS 3 Zrotation Yrotation Xrotation
			JOINT RightFoot
			{
				OFFSET 0.000000 -4.487670 0.000000
				CHANNELS 3 Zrotation Yrotation Xrotation
				JOINT RightToeBase
				{
					OFFSET 0.000000 0.000000 1.515070
					CHANNELS 3 Zrotation Yrotation Xrotation
					End Site
					{
						OFFSET 0.000000 0.000000 0.000000
					}
				}
			}
		}
	}
}
MOTION
Frames: 14
Frame Time: 0.041667
-16.008512 8.995461 36.989530 -177.966290 -6.199600 -168.360048 5.667795 1.597861 -23.947894 -1.356254 1.782440 12.643919 0.000000 0.000000 0.000000 -8.654167 7.287668 -2.918540 -22.888797 -3.431315 -67.908505 -29.582300 -5.656920 16.142500 -36.074100 -32.342899 2.066870 0.000000 -36.434101 0.000000 16.899599 4.680640 18.905701 29.597401 0.606993 6.793780 38.755798 25.987400 13.032990 0.000000 27.597000 0.000000 -10.656500 -2.108670 3.554970 7.062155 -29.631377 -13.327797 0.000000 0.000000 7.449340 -2.638659 13.925849 -2.175264 0.000000 0.000000 -9.914390 4.011806 29.501520 -7.743228 0.000000 0.000000 4.264470 4.051692 -27.805672 1.643399 0.000000 0.000000 -17.248210 
-16.003001 8.995820 36.989285 -177.989661 -6.616828 -168.458454 5.759672 1.532209 -23.927489 -1.438627 1.666684 12.625630 0.000000 0.000000 0.000000 -8.602355 7.291286 -2.744128 -23.101034 -3.289499 -67.843291 -29.443600 -5.612320 16.158300 -36.223801 -32.311600 2.347070 0.000000 -37.519600 0.000000 16.944799 3.961270 18.258301 29.627701 0.579314 6.788690 38.953400 26.521500 13.897003 0.000000 27.806900 0.000000 -11.046800 -1.756700 5.907340 7.151349 -30.063227 -13.427131 0.000000 0.000000 7.617650 -2.570674 14.028345 -2.134384 0.000000 0.000000 -9.956210 4.154202 29.253311 -7.541355 0.000000 0.000000 4.143990 3.990126 -27.951548 1.684222 0.000000 0.000000 -17.252420 
-15.997252 8.996091 36.987785 -178.028205 -6.979012 -168.589574 5.780586 1.415424 -23.888944 -1.394378 1.562576 12.646881 0.000000 0.000000 0.000000 -8.499254 7.267452 -2.592871 -23.316292 -3.140736 -67.784989 -29.333700 -5.496990 16.089399 -36.513100 -32.079102 2.693620 0.000000 -38.158699 0.000000 16.982401 3.113720 17.662399 29.617201 0.612441 6.843430 39.124298 26.824900 14.819000 0.000000 27.913500 0.000000 -11.494100 -1.447400 7.566000 7.188415 -30.472477 -13.441848 0.000000 0.000000 7.742410 -2.419270 14.179130 -2.068235 0.000000 0.000000 -9.995010 4.289449 29.080527 -7.317832 0.000000 0.000000 4.056830 3.915423 -28.125186 1.718241 0.000000 0.000000 -17.282350 
-15.984610 8.994209 36.998101 -178.088665 -6.944804 -168.114651 5.650968 1.485628 -24.085309 -1.224203 1.713440 12.347808 0.000000 0.000000 0.000000 -8.318384 7.203281 -2.394203 -23.429336 -3.042302 -67.819735 -29.322201 -5.431590 16.084801 -36.719898 -31.640200 2.985770 0.000000 -38.402000 0.000000 16.812500 2.574210 16.549999 29.711901 0.682122 7.009350 39.146099 26.904900 15.231995 0.000000 27.870600 0.000000 -11.596800 -1.051110 9.469170 7.490040 -30.321892 -14.110863 0.000000 0.000000 7.859580 -2.496033 14.111819 -2.097321 0.000000 0.000000 -10.006930 3.937055 29.461533 -8.064262 0.000000 0.000000 4.268920 4.147238 -28.311912 1.508026 0.000000 0.000000 -17.287690 
-15.978949 8.993985 36.995371 -178.126296 -7.214309 -168.186773 5.672615 1.455778 -24.127282 -1.201414 1.683970 12.481778 0.000000 0.000000 0.000000 -8.063120 7.090959 -2.385428 -23.484471 -2.884008 -67.722073 -29.269400 -5.320270 16.069300 -37.029900 -31.127701 3.184290 0.000000 -38.256302 0.000000 16.357599 2.228510 15.599600 29.797600 0.671985 7.032440 39.278599 26.748400 15.645996 0.000000 27.737301 0.000000 -11.475700 -0.908041 9.815340 7.514401 -30.557602 -14.133552 0.000000 0.000000 7.952130 -2.375109 14.169478 -2.074956 0.000000 0.000000 -10.001660 4.037190 29.298524 -7.912091 0.000000 0.000000 4.209190 4.107374 -28.404567 1.501384 0.000000 0.000000 -17.281950 
-15.974132 8.993299 36.992040 -178.142437 -7.464066 -168.307920 5.700976 1.436172 -24.132163 -1.134579 1.658483 12.668195 0.000000 0.000000 0.000000 -7.838750 7.004194 -2.444860 -23.428240 -2.744621 -67.615245 -29.346600 -5.205160 16.097099 -37.183102 -30.392900 3.426980 0.000000 -37.965698 0.000000 15.871000 2.394350 14.864200 29.900900 0.634184 7.093040 39.346901 26.452200 15.867004 0.000000 27.435200 0.000000 -11.065000 -0.845962 10.070700 7.533695 -30.828220 -14.086936 0.000000 0.000000 8.025210 -2.352675 14.224792 -2.092691 0.000000 0.000000 -9.977040 4.176521 29.165534 -7.701554 0.000000 0.000000 4.143440 4.100293 -28.509557 1.482164 0.000000 0.000000 -17.291470 
-15.970503 8.992594 36.985699 -178.165212 -7.726554 -168.561583 5.745404 1.446528 -24.100968 -1.121765 1.645037 13.017059 0.000000 0.000000 0.000000 -7.562636 6.912076 -2.577033 -23.315206 -2.601693 -67.538020 -29.419399 -5.095350 16.121500 -37.346699 -29.548201 3.724950 0.000000 -37.436401 0.000000 15.336600 2.948340 14.277400 30.045401 0.544302 7.050990 39.393002 25.921101 15.940002 0.000000 27.074900 0.000000 -10.633300 -1.033890 9.643560 7.464573 -31.184373 -13.861782 0.000000 0.000000 8.079230 -2.299640 14.342068 -2.110400 0.000000 0.000000 -9.978350 4.412698 28.858926 -7.272820 0.000000 0.000000 4.004480 3.972656 -28.512745 1.528530 0.000000 0.000000 -17.285410 
-15.962910 8.990499 36.985084 -178.220485 -7.716868 -168.369345 5.659380 1.514402 -24.294134 -0.940525 1.779289 13.174066 0.000000 0.000000 0.000000 -7.370649 6.858691 -2.703684 -23.117122 -2.529937 -67.507088 -29.589500 -4.893240 16.128300 -37.511398 -28.613701 4.149210 0.000000 -36.567799 0.000000 15.025800 3.704220 14.438900 30.184500 0.448888 7.027730 39.377998 25.250299 15.906006 0.000000 26.495701 0.000000 -10.096600 -0.965549 9.710830 7.554964 -31.117122 -14.110260 0.000000 0.000000 8.155530 -2.332890 14.315528 -2.172387 0.000000 0.000000 -9.977190 4.288225 28.948403 -7.510837 0.000000 0.000000 4.050140 4.043046 -28.538349 1.406980 0.000000 0.000000 -17.272560 
-15.957074 8.988841 36.980228 -178.247671 -7.827655 -168.339650 5.618211 1.513798 -24.415478 -0.748574 1.827560 13.401244 0.000000 0.000000 0.000000 -7.192051 6.794201 -2.792057 -22.927139 -2.485049 -67.487246 -29.802099 -4.636750 16.136900 -37.612999 -27.546400 4.663740 0.000000 -35.373299 0.000000 14.350700 4.192080 14.259700 30.318300 0.327674 7.121390 39.330002 24.457001 15.753998 0.000000 25.874701 0.000000 -9.525200 -1.248990 8.932230 7.613272 -31.259360 -14.174512 0.000000 0.000000 8.209000 -2.338871 14.363618 -2.234998 0.000000 0.000000 -9.973130 4.321699 28.877323 -7.482341 0.000000 0.000000 4.008540 4.053846 -28.556854 1.346655 0.000000 0.000000 -17.272490 
-15.952562 8.987026 36.974399 -178.270901 -7.920730 -168.260790 5.655733 1.595567 -24.573658 -0.730312 1.881743 13.622387 0.000000 0.000000 0.000000 -6.872891 6.686713 -2.877324 -22.843442 -2.360047 -67.483346 -29.962400 -4.423110 16.078699 -37.755901 -26.263599 5.658270 0.000000 -33.999001 0.000000 14.780100 4.868990 15.259100 30.522100 0.135555 7.057610 39.334202 23.451000 15.714996 0.000000 25.133699 0.000000 -8.860200 -1.756460 8.760420 7.681165 -31.351486 -14.270757 0.000000 0.000000 8.244390 -2.357107 14.384916 -2.307066 0.000000 0.000000 -9.952830 4.310832 28.930413 -7.512571 0.000000 0.000000 3.977200 4.077208 -28.667074 1.270108 0.000000 0.000000 -17.284870 
-15.943637 8.983911 36.973947 -178.334253 -7.735110 -168.117362 5.530759 1.680985 -24.584580 -0.502599 2.041613 13.642027 0.000000 0.000000 0.000000 -6.565542 6.540461 -2.930031 -22.788394 -2.280866 -67.476612 -30.188299 -4.128580 16.028500 -37.894901 -24.890200 6.688950 0.000000 -32.285500 0.000000 14.785800 5.388750 16.654400 30.644899 0.010521 7.018240 39.395500 22.257601 15.674011 0.000000 24.244600 0.000000 -8.397500 -2.065440 8.598120 7.680072 -31.096139 -14.361363 0.000000 0.000000 8.235110 -2.416720 14.291536 -2.393205 0.000000 0.000000 -9.931610 4.173738 29.191153 -7.757547 0.000000 0.000000 4.117730 4.176782 -28.706187 1.083137 0.000000 0.000000 -17.246480 
-15.941004 8.982126 36.972269 -178.309601 -7.722363 -167.861743 5.651764 1.819639 -24.745116 -0.525323 2.078337 13.689781 0.000000 0.000000 0.000000 -6.270310 6.443450 -2.972264 -22.690233 -2.187946 -67.512994 -30.403999 -3.861540 15.873700 -38.094700 -23.322800 7.702250 0.000000 -30.264700 0.000000 14.904900 5.912830 18.258900 30.808599 -0.205383 6.896330 39.485802 20.967800 15.721008 0.000000 23.207001 0.000000 -7.878710 -2.228750 8.294570 7.857139 -31.010290 -14.671598 0.000000 0.000000 8.297280 -2.459698 14.256449 -2.502207 0.000000 0.000000 -9.921410 4.051693 29.326544 -8.091805 0.000000 0.000000 4.197990 4.274749 -28.745707 0.974390 0.000000 0.000000 -17.239150 
-15.935561 8.980428 36.962614 -178.341245 -7.611246 -167.802397 5.647993 1.876317 -24.850527 -0.435998 2.138137 13.883660 0.000000 0.000000 0.000000 -6.005422 6.307627 -3.102745 -22.625929 -2.088394 -67.418335 -30.558300 -3.533990 15.933900 -38.393501 -21.863100 8.342940 0.000000 -27.938601 0.000000 14.354600 5.879260 19.223499 30.903400 -0.386780 6.884030 39.661800 19.652500 15.644012 0.000000 22.065300 0.000000 -7.493830 -2.526850 7.853250 7.808377 -30.847856 -14.578334 0.000000 0.000000 8.206080 -2.447358 14.223041 -2.553213 0.000000 0.000000 -9.923310 4.029566 29.508427 -8.143617 0.000000 0.000000 4.282990 4.292723 -28.818978 0.859224 0.000000 0.000000 -17.226440 
-15.931917 8.978603 36.953203 -178.364861 -7.623014 -167.731441 5.703064 1.880982 -24.950062 -0.400786 2.115746 14.070990 0.000000 0.000000 0.000000 -5.881823 6.259273 -3.254047 -22.535509 -2.023609 -67.343851 -30.694201 -3.232250 15.809000 -38.833099 -20.205200 8.875740 0.000000 -25.319599 0.000000 13.691100 6.016300 19.106701 30.951300 -0.638820 6.735780 39.949600 18.236200 15.604004 0.000000 20.798401 0.000000 -7.112350 -2.647770 7.375260 7.819421 -30.836306 -14.569961 0.000000 0.000000 8.167950 -2.354770 14.241184 -2.585095 0.000000 0.000000 -9.973080 4.024812 29.597074 -8.190497 0.000000 0.000000 4.347040 4.284506 -28.925780 0.757506 0.000000 0.000000 -17.231220 
